<?xml version="1.0" encoding="UTF-8"?>
<svg id="Layer_2" data-name="Layer 2" xmlns="http://www.w3.org/2000/svg" viewBox="0 0 1255.7 665.42">
  <defs>
    <style>
      .cls-1 {
        fill: #020202;
      }

      .cls-1, .cls-2, .cls-3, .cls-4, .cls-5, .cls-6, .cls-7, .cls-8, .cls-9, .cls-10, .cls-11, .cls-12, .cls-13, .cls-14, .cls-15, .cls-16 {
        stroke-width: 0px;
      }

      .cls-2 {
        fill: #363636;
      }

      .cls-3 {
        fill: #030303;
      }

      .cls-4 {
        fill: #010101;
      }

      .cls-6 {
        fill: #343434;
      }

      .cls-7 {
        fill: #0d0d0d;
      }

      .cls-8 {
        fill: #0b0b0b;
      }

      .cls-9 {
        fill: #090909;
      }

      .cls-10 {
        fill: #444;
      }

      .cls-11 {
        fill: #3a3a3a;
      }

      .cls-12 {
        fill: #181818;
      }

      .cls-13 {
        fill: #0a0a0a;
      }

      .cls-14 {
        fill: #555;
      }

      .cls-15 {
        fill: #070707;
      }

      .cls-16 {
        fill: #080808;
      }
    </style>
  </defs>
  <g id="Logo">
    <path class="cls-10" d="m1254.67,379.75c.34,0,.69-.01,1.03-.02v15c-.34,0-.69-.02-1.03-.02,0-4.99,0-9.97,0-14.96Z"/>
    <path class="cls-3" d="m1254.67,379.75c0,4.99,0,9.97,0,14.96-.07.65-.13,1.3-.2,1.95-.24.7-.48,1.39-.72,2.09-.73,2.32-1.45,4.64-2.18,6.96-.36.67-.72,1.34-1.08,2-4.67,10.87-13.28,18.73-22.94,24.61-15.34,9.34-31.35,17.8-47.72,25.28-13.26,6.06-27.36,10.45-41.29,15-14.47,4.73-29.07,9.17-43.81,12.98-17.5,4.51-35.16,8.41-52.84,12.21-18.06,3.87-36.18,7.45-54.34,10.85-9.57,1.79-19.27,2.91-28.91,4.35-16.95,2.53-33.87,5.22-50.85,7.56-12.17,1.67-24.39,2.94-36.61,4.27-19.86,2.16-39.73,4.28-59.61,6.28-9.05.91-18.13,1.61-27.21,2.21-23.88,1.59-47.77,3.04-71.65,4.64-15.12,1.02-30.21,2.52-45.33,3.26-19.7.96-39.42,1.45-59.14,2.02-18.61.55-37.23.98-55.85,1.4-16.58.37-33.17.71-49.75.97-22.88.35-45.75.8-68.63.83-18.29.02-36.59-.37-54.87-.84-30.44-.78-60.89-1.69-91.32-2.72-15.82-.54-31.64-1.44-47.45-2.22-.89-.04-1.77-.46-2.58-1.42,6.64-1.11,13.27-2.32,19.94-3.32,11.81-1.78,23.65-3.33,35.45-5.19,15.76-2.48,31.51-5.01,47.22-7.78,20.01-3.53,40-7.17,59.94-11.06,15.31-2.99,30.54-6.39,45.79-9.73,18.19-3.98,36.4-7.93,54.52-12.21,12.72-3,25.32-6.5,37.96-9.85,16.03-4.24,32.08-8.43,48.04-12.89,8.05-2.25,15.91-5.11,23.9-7.59,10.5-3.26,21.11-6.22,31.55-9.65,11.42-3.75,22.73-7.82,34.04-11.87,12.46-4.46,24.88-9.04,37.3-13.62,2.28-.84,4.46-1.95,6.69-2.94.42.53.85,1.07,1.27,1.6-15.94,20.1-31.88,40.2-48.66,61.35,5.86,0,10.7.36,15.47-.06,18.59-1.65,37.16-3.58,55.75-5.33,14.91-1.41,29.84-2.61,44.74-4.09,13.21-1.31,26.39-2.82,39.57-4.37,13.04-1.54,26.08-3.13,39.09-4.89,15.82-2.15,31.62-4.52,47.43-6.75,14.66-2.07,29.36-3.83,43.96-6.21,12.74-2.08,25.36-4.81,38.04-7.28,11.03-2.15,22.1-4.17,33.08-6.56,9.02-1.96,17.97-4.21,26.88-6.61,7.76-2.09,15.64-4.04,23.08-6.98,15.52-6.12,31.09-12.25,46.03-19.57,8.15-3.99,15.67-9.78,22.39-15.9,12.93-11.77,14.22-26.76,4.8-41.35-10.16-15.74-24.12-27.71-39.45-38.24-10.46-7.19-21.04-14.24-31.93-20.8-8.1-4.87-16.66-9.06-25.27-13.01-1.45-.66-4.23,1.46-6.39,2.3-2.4-2.48-4.81-4.95-7.21-7.43.5,0,1.06-.16,1.51,0q8.61,2.86,12.84-5.4c2.28-4.42,4.43-8.92,7.05-13.14,1.79-2.89,1.45-4.64-1.71-5.75-7.41-2.63-14.83-5.27-22.29-7.76-7.91-2.63-15.85-5.18-23.83-7.6-10.91-3.3-21.84-6.52-32.81-9.62-8.86-2.5-17.78-4.83-26.7-7.13-9.59-2.47-19.21-4.81-28.82-7.2-10.39-2.59-20.73-5.36-31.18-7.71-14.42-3.24-28.9-6.23-43.37-9.2-15.44-3.17-30.9-6.24-46.37-9.29-15-2.95-30.01-5.89-45.04-8.7-14.83-2.78-29.69-5.37-44.52-8.12-3.6-.67-7.15-1.63-11.23-2.58,2.02-3.96,3.96-7.84,5.97-11.69,14.54-27.87,29.07-55.74,43.66-83.58,9.32-17.78,18.81-35.47,28.05-53.28,1.94-3.73,4.34-5.07,8.72-5.06,46.52.18,93.04.18,139.56,0,4.98-.02,6.51,1.74,6.63,6.31.41,16.1,1.05,32.19,1.64,48.29.83,22.57,1.61,45.14,2.59,67.7.76,17.37,1.79,34.73,2.73,52.1.03.61.3,1.21.65,2.5,1.22-.82,2.44-1.19,2.85-1.98,4.75-9.08,9.36-18.23,14.06-27.34,7.38-14.3,14.81-28.58,22.23-42.86,10.3-19.83,20.56-39.68,30.91-59.48,7.51-14.36,15.06-28.7,22.88-42.89.73-1.32,3.57-2.14,5.44-2.15,18.84-.15,37.69-.09,56.54-.09,29.03,0,58.06,0,87.1,0,.83,0,1.66.13,3.43.28-4.12,7.99-7.98,15.56-11.91,23.09-7.41,14.21-14.85,28.41-22.3,42.6-6.08,11.57-12.22,23.11-18.29,34.69-7.48,14.28-14.86,28.61-22.36,42.87-11.42,21.69-22.93,43.33-34.36,65.01-4.71,8.94-9.23,17.97-13.98,26.88-1.81,3.39-.69,5.33,2.59,6.58,13.09,4.99,26.42,9.46,39.22,15.08,15.71,6.9,31.02,14.69,46.45,22.2,22.69,11.05,43.58,24.85,62.9,40.87,12.34,10.23,22.63,22.25,29.88,36.57.37.72.45,1.58.66,2.38.75,1.66,1.5,3.32,2.26,4.97.29,1.34.58,2.68.87,4.01.29.69.59,1.37.88,2.06.14.3.22.61.23.94Z"/>
    <path class="cls-4" d="m257.11,156.36c.3-.58.61-1.17.91-1.75.43-.63.86-1.25,1.29-1.88.38-.98.77-1.97,1.15-2.95.66-1.01,1.33-2.02,1.99-3.02.7-1.33,1.41-2.67,2.11-4,.34-.66.68-1.32,1.02-1.98,1.31-2.35,2.62-4.69,3.93-7.04l1.77-2.58c.18-.46.37-.93.55-1.39.92-1.68,1.84-3.36,2.76-5.04l2.68-3.94c.37-.78.75-1.56,1.12-2.35l.26.24s-.28-.21-.28-.21c2.48-1.25,4.96-2.5,7.44-3.75,3.37.21,6.75.41,10.12.62,5.21,4.64,11.23,3.92,17.35,2.51,1.35.11,2.71.23,4.06.34,2.66,3.3,8.8,4.41,14.3,2.59l7.11.29c1.5.86,2.92,2.21,4.52,2.49,6.92,1.22,13.9,2.2,20.88,3.06,1.34.17,2.79-.58,4.19-.91,13.84,1.84,27.68,3.64,41.51,5.55,11.16,1.54,22.28,3.34,33.46,4.72,3.81.47,4.28,1.81,2.69,4.85-11.29,21.56-22.54,43.15-33.8,64.72-8.55,16.39-17.08,32.79-25.66,49.16-10.36,19.77-20.98,39.4-31.03,59.32-3.77,7.47-6.46,15.49-9.19,23.41-1.52,4.41.76,8.66,4.99,10.1,14.32,4.88,38.06,1.97,47.4-12.72,9.07-14.28,17.79-28.8,26.11-43.51,8.95-15.84,17.36-31.97,25.81-48.08,8.92-17,17.56-34.14,26.41-51.17,7.42-14.28,15.16-28.39,22.3-42.8,1.77-3.57,3.93-4.03,7.12-3.51,10.11,1.65,20.21,3.41,30.32,5.04,15.77,2.54,31.58,4.83,47.32,7.55,18.51,3.2,36.95,6.81,55.45,10.13,7.29,1.31,14.65,2.26,21.96,3.48,2.07.35,4.07,1.08,6.25,1.68-6.34,12.12-12.36,23.68-18.42,35.22-7.3,13.92-14.46,27.91-21.97,41.72-9.09,16.72-18.21,33.43-27.86,49.84-6.29,10.71-13.12,21.17-20.45,31.21-11.81,16.16-27.61,28.19-44.94,38.08-11.89,6.79-24.2,13.03-36.82,18.38-20.82,8.82-42.45,15.4-64.94,18.93-18.07,2.84-36.06,6.52-54.24,8.24-16.14,1.53-32.5,1.11-48.76,1.14-14.39.02-28.83.13-43.15-1.02-12.51-1.01-24.92-3.51-37.31-5.72-20.31-3.62-39.64-9.89-56.53-22.01-10.53-7.55-18.31-17.39-21.89-29.67-2.67-9.13-2.79-18.82.64-27.88,5.15-13.59,10.4-27.2,16.64-40.33,8.36-17.6,17.71-34.74,26.63-52.08,1.7-3.33,3.41-6.65,5.11-9.98l1.07-1.99c.45-.63.9-1.27,1.36-1.9.32-.67.63-1.33.95-2,.69-1.34,1.38-2.67,2.07-4.01,1.35-2.66,2.7-5.33,4.04-7.99.91-1.77,1.82-3.54,2.73-5.32.65-1.23,1.3-2.46,1.95-3.69.43-.94.87-1.88,1.3-2.82.68-1.07,1.37-2.14,2.05-3.21,4.24-1.08,2.99-4.66,3.5-7.43l.23.12s-.19-.17-.19-.17c3.8-2.22,5.36-5.62,5.4-9.82-.11-.3-.03-.54.24-.72,6.03-5.56,8.69-12.86,10.92-20.38Z"/>
    <path class="cls-5" d="m1042.78,271.34c2.4,2.48,4.81,4.95,7.21,7.43-.68,1.33-1.36,2.66-2.04,3.99-.34.67-.69,1.33-1.03,2-.75,1.31-1.49,2.62-2.24,3.94-.58,1.42-1.15,2.84-1.73,4.26,0,0,.06-.07.06-.07-.41.62-.82,1.23-1.23,1.85-.63,1.35-1.25,2.7-1.88,4.06-.6.93-1.19,1.87-1.79,2.8-.12.38-.23.76-.35,1.14-1.51.49-4.14.28-1.97,3.05-.66,1.34-1.31,2.68-1.97,4.02-.61,1.26-1.22,2.52-1.83,3.77-.12.38-.25.77-.37,1.15-2.1.13-4.5.07-1.94,3.06-1.15,2.31-2.29,4.63-3.44,6.94-.65.99-1.29,1.97-1.94,2.96-.32.67-.63,1.35-.95,2.02l-1.8,3.09c-.37.98-.74,1.96-1.11,2.93-2.34.45-4.18,1.18-2.24,3.96-.25.7-.5,1.4-.75,2.09-1.59.42-4.25.16-1.99,3.02-.22.64-.43,1.28-.65,1.91-3.36.9-3.97,3.27-3.44,6.24,0,0,.06-.07.06-.07-.71,1.08-1.43,2.16-2.14,3.25-.1.53-.21,1.06-.31,1.6-4.29.85-4.05,4-3.78,7.17,0,0,.05-.06.05-.06-.69,1.13-1.38,2.25-2.07,3.38l-.32,1.51c-2.16.03-3.83.37-1.97,2.97-1.34,2.68-2.68,5.36-4.03,8.03-.66,1-1.33,2-1.99,3-.37.99-.73,1.98-1.1,2.98-.59.86-1.19,1.72-1.78,2.59l-2.61,5.43c-1.1,2.28-2.2,4.55-3.3,6.83-.91,1.39-1.81,2.78-2.72,4.17-50.6,0-101.2-.06-151.8.11-4.76.02-5.92-1.34-5.9-5.88.16-52.5.11-105,.06-157.5,0-1.9-.61-3.81-.93-5.71-.07-1.65-.14-3.3-.21-4.96-.5-1-1-2-1.5-3.01-.44.66-.88,1.32-1.32,1.98-.3.68-.61,1.36-.91,2.03-2.44.32-4.25,1.01-2.39,3.88-.3.68-.61,1.36-.91,2.03-.67,1-1.35,2-2.02,3-.37,1-.75,2.01-1.12,3.01-2.15.04-3.9.33-1.98,2.98-.15.67-.3,1.34-.45,2.01-2.55.29-4.59.89-2.57,4-.24.7-.49,1.4-.73,2.1-4.53,2.5-5.35,6.95-6.22,11.37-.51.84-1.02,1.69-1.53,2.53-.9,1.67-1.79,3.34-2.69,5.01-.55,1.38-1.11,2.75-1.66,4.13-.45.63-.89,1.26-1.34,1.89-.37.99-.73,1.98-1.1,2.97-.67,1-1.34,2.01-2.01,3.01-1.35,2.67-2.71,5.34-4.06,8-.65,1.01-1.3,2.02-1.95,3.03-.37.99-.74,1.98-1.11,2.96-.58.93-1.15,1.86-1.73,2.79-.22.73-.44,1.46-.66,2.2-2.2.05-3.63.56-1.82,2.97-.46,1.07-.92,2.14-1.38,3.21-3.24,1.64-5.75,3.7-4.63,7.83-.3.68-.61,1.36-.91,2.04-3.99.42-3.11,3.22-2.91,5.7l-.09.27c-4.56,1.45-4.26,5.37-4.7,8.91-.14.36-.29.72-.43,1.08-4.37,1.55-5.12,5.09-5.16,9.02-.37.99-.74,1.99-1.1,2.98-2.1.1-4.26.17-1.96,3.02-.67,1.34-1.34,2.67-2,4.01-.34.67-.68,1.33-1.02,2-.28.69-.55,1.38-.83,2.07-2.65.26-4.38,1.03-2.24,3.93-1.34,2.66-2.69,5.32-4.03,7.98-1.35,2.35-2.71,4.7-4.06,7.05-.51,1.31-1.01,2.63-1.52,3.94-2.15.04-3.53.55-1.9,2.94-1.23,2.38-2.45,4.75-3.68,7.13-3.2-.1-4.2,1.08-2.33,3.9-.23.7-.47,1.41-.7,2.11-1.52.46-4.32.09-2.01,3.01-.39.98-.78,1.96-1.16,2.94h-149.34c1.46-2.79,2.51-4.43,3.19-6.21.44-1.16.33-2.52.47-3.79,1.15-2.34,2.29-4.67,3.44-7.01,2.55-.29,3.98-1.27,2.6-4.01.24-.7.48-1.41.72-2.11.72-1.18,1.44-2.36,2.16-3.54.21-.78.43-1.56.64-2.34.55-.66,1.1-1.33,1.64-1.99.57-1.37,1.15-2.74,1.72-4.11.71-1.13,1.42-2.27,2.14-3.4l-.1-.32.28-.19c.65-1.01,1.31-2.01,1.96-3.02.37-.99.74-1.98,1.11-2.97l1.78-2.67,1.3-3.34,2.07-3.97c1.19-2.39,2.38-4.78,3.57-7.17.46-.63.92-1.25,1.38-1.88.34-.66.69-1.33,1.03-1.99,3.81-.43,3.04-3.17,2.92-5.57l-.08-.25.2-.17c4-2.76,6.08-6.46,5.82-11.33l.19.24s-.23-.2-.23-.2c.98-.42,1.96-.83,2.94-1.25-.45-.58-.89-1.17-1.34-1.75-.15-.31-.07-.55.25-.7,4.19-2.08,5.63-5.66,5.7-10,.4-1,.81-2.01,1.21-3.01,2.21-.05,3.77-.48,1.85-2.99.38-1,.77-2.01,1.15-3.01,2.2-.05,3.88-.42,1.86-3,.19-.66.38-1.33.58-1.99.81-1.05,1.61-2.11,2.42-3.16.35-.96.69-1.91,1.04-2.87,2.35-.48,4.18-1.22,2.12-3.97.63-1.02,1.26-2.03,1.89-3.05.34-.67.69-1.33,1.03-2,.85-1.65,1.7-3.31,2.55-4.96.86-1.68,1.72-3.35,2.58-5.03.67-1.34,1.33-2.67,2-4.01.57-.94,1.14-1.88,1.71-2.82.11-.38.21-.77.32-1.15,1.51-.49,4.18-.26,1.98-3.06l1.12-2.96c1.52-.49,4.23-.29,1.87-3.06.38-.98.77-1.96,1.15-2.95,2.11-.1,4.59.02,1.96-3.03,1.16-2.31,2.33-4.62,3.49-6.93,2.16-.04,3.71-.46,1.92-2.96.24-.7.49-1.4.73-2.1,1.59-.42,4.25-.16,1.99-3.02.38-.98.75-1.95,1.13-2.93,3.1-1.52,5.61-6.12,4.96-9.08.37-.99.73-1.98,1.1-2.96,3.68-.24,3.26-2.76,2.99-5.19,0,0-.06.07-.06.07.72-1.07,1.44-2.15,2.15-3.22l.29-1.6c3.95-1.04,4-4.05,3.77-7.19,0,0-.06.06-.06.06.45-.61.9-1.22,1.35-1.83.55-1.38,1.1-2.76,1.65-4.13,1.45-2.3,2.91-4.6,4.36-6.9.35-1,.7-2,1.05-3.01.67-.99,1.34-1.97,2.01-2.96l.02-.02c2.04-.05,4.08-.1,6.13-.15,1.34.13,2.68.25,4.02.38,1.15,3.6,3.42,3.4,6.12,1.74.67.13,1.35.26,2.02.38,4.25,1.65,8.06,5.36,13.23,2.71,2.72.37,5.45.75,8.17,1.12,1.19,3.67,3.42,3.59,6.17,1.66,2.01.24,4.03.49,6.04.73,2.17,5.72,6.32,3.52,10.19,2.45l5.13.9c1.23,1.02,2.36,2.76,3.69,2.91,3.89.45,7.71-.14,11.34,2.58,1.47,1.1,4.88-.29,7.4-.55,1.34.15,2.68.31,4.02.46.33,3.18,1.78,3.5,4.12,1.56,1,.17,2.01.34,3.01.51,3.89,1.68,7.45,4.89,12.22,2.62,2.04.39,4.08.77,6.12,1.16.76,4.74,3.52,3.02,6.11,1.83,1.36.18,2.71.35,4.07.53,2.42,3.12,5.23,4.83,9.18,2.46,1.71.29,3.43.58,5.14.87.87,4,3.17,3.92,6.09,2.06,2.37.35,4.74.7,7.1,1.05,1.13,1.01,2.09,2.49,3.42,2.93,2.76.91,5.7,1.39,8.6,1.81,1.02.15,2.14-.38,3.22-.6,2.05.38,4.1.76,6.15,1.15.9,2.92,2.53,3.7,5.12,1.69l4.05.48c2.08,1.68,3.54,5.04,7.15,2.53,2.03.36,4.07.72,6.1,1.07,1.03,3.81,3.31,3.73,6.14,1.89,1.01.16,2.01.32,3.02.48,1.37,3.51,3.63,4.69,7.13,2.63,1.71.3,3.42.61,5.13.91.76,1.01,1.33,2.63,2.31,2.92,3.41.99,6.95,1.58,10.46,2.17,1.14.19,2.36-.07,3.55-.13,1,.13,2.01.25,3.01.38.33,3.95,2.68,2.95,5.02,1.97,1.72.34,3.45.68,5.17,1.02.19,3.13,1.64,3.51,4.06,1.81,1.7.37,3.41.75,5.11,1.12.39,4.08,2.69,3.1,5.08,1.84,1.37.3,2.74.61,4.11.91.59,3.26,2.33,3.83,5.06,2.09,1.38.27,2.76.54,4.14.81.84,4.02,3.15,3.93,6.08,2.09.67.16,1.34.32,2.01.48.92,3.42,2.73,4.82,6.12,2.57,1.03.31,2.06.61,3.09.92.69.32,1.37.64,2.06.96.66.22,1.32.44,1.98.65,1.43.44,2.85.89,4.28,1.33,0,0-.06-.06-.06-.06.97.4,1.95.81,2.92,1.21,1.74.54,3.49,1.08,5.23,1.62.1,2.23.86,3.1,2.91,1.4,1.35.37,2.7.73,4.04,1.1.12,3.1,1.54,3.65,4.08,1.99,1.05.25,2.1.49,3.15.74.4,2.53,1.22,4.25,4.07,2.02,1.34.38,2.68.75,4.03,1.13.04,3.33,1.46,3.88,4.09,1.95l6.11,2.65Z"/>
    <path class="cls-1" d="m291.85,96.71c1.42-1.98,2.84-3.96,4.26-5.94,2.31-3.09,4.61-6.18,6.92-9.27,1.11-1.25,2.22-2.5,3.32-3.76,1.63-1.7,3.26-3.4,4.9-5.1.33-.32.65-.64.98-.95,1.04-1,2.08-1.99,3.12-2.99.94-.7,1.88-1.4,2.81-2.09.72-.68,1.45-1.36,2.17-2.05,0,0-.04.04-.04.04.76-.53,1.52-1.06,2.29-1.59.41-.4.81-.8,1.22-1.2,2.3-1.66,4.59-3.31,6.89-4.97,3.62-2.42,7.24-4.84,10.85-7.26.8-.58,1.6-1.15,2.41-1.73,0,0,.09-.06.09-.06,1.66-.99,3.32-1.98,4.98-2.96l1.99-1.13c.67-.35,1.35-.69,2.02-1.04,1.05-.57,2.1-1.13,3.16-1.7,1.69-.92,3.38-1.83,5.07-2.75,2.39-1.07,4.78-2.15,7.16-3.22,1.69-.81,3.38-1.62,5.07-2.42l2-.8c.65-.38,1.31-.76,1.96-1.13,0,0-.03.03-.03.03,2.43-.14,5.48,1.08,6.28-2.72.68-.33,1.36-.66,2.04-.99,2.81,1.45,4.86.8,6.08-2.12,1.02-.34,2.03-.68,3.05-1.02,4.92,1.06,8.5-1.68,12.18-4.13,2.39-.63,4.78-1.26,7.17-1.88,2.73-.79,5.46-1.58,8.18-2.37,1.01-.2,2.02-.39,3.03-.59l3.04-1.07c1.36-.32,2.73-.63,4.09-.95.75.28,1.58.9,2.25.77,5.76-1.07,11.51-2.2,17.21-3.53,1.09-.25,1.96-1.43,2.94-2.18,2.73-.34,5.45-.68,8.18-1.01,5.01,2.35,9.13-.07,13.26-2.42,1.37-.15,2.74-.29,4.11-.44,4.34.19,8.7.71,13,.43,2.48-.16,4.87-1.62,7.31-2.49,1.63-.36,3.26-1.01,4.89-1.04,20.5-.37,41.01-1.28,61.49-.76,16.31.41,32.72,1.71,48.83,4.2,23.29,3.59,46.22,8.96,66.34,22.1,14.38,9.39,24.39,21.71,27.59,38.74,1.58,8.43.19,16.81-2.98,24.38-8.93,21.35-18.69,42.37-28.25,63.46-1.33,2.93-3.79,4.46-7.42,3.77-10.24-1.93-20.48-3.9-30.78-5.51-14.61-2.28-29.28-4.18-43.9-6.41-9.13-1.39-18.18-3.25-27.31-4.6-9.66-1.43-19.38-2.39-29.05-3.76-10.26-1.46-20.48-3.17-31.46-4.89,1.39-3.02,2.41-5.52,3.65-7.91,5.26-10.14,10.87-20.11,15.75-30.42,2.24-4.72,3.42-10.01,4.48-15.16.94-4.58-1.74-7.93-5.99-9.23-10.15-3.12-20.17-2.21-30.25,1.18-15.05,5.07-21.44,17.88-28.7,29.91-4.19,6.94-7.67,14.29-11.86,21.22-.86,1.42-3.55,2.75-5.22,2.57-11.02-1.19-21.99-2.84-32.98-4.27-12.68-1.65-25.36-3.31-38.06-4.8-19.07-2.24-38.17-4.28-57.25-6.5-9.82-1.14-19.61-2.5-29.42-3.77-.92-1-1.84-2-2.28-2.48.45-2.03.81-3.66,1.17-5.3Z"/>
    <path class="cls-9" d="m547.22,607.82c.24,1.16.48,2.31.72,3.47.24,1.15.49,2.3.73,3.44l.5,1.36c.14,1.76.28,3.52.42,5.28.63-.04,1.26-.08,1.88-.11.16-1.83.33-3.66.49-5.48,1.15-10.81,2.3-21.61,3.49-32.87,8.79,0,16.9-.17,24.98.21,1.04.05,2.72,2.97,2.76,4.59.22,8.98-.01,17.98-.03,26.97-.03,16.1,0,32.21,0,49.11-5.17,0-10.5.1-15.82-.14-.6-.03-1.6-2-1.6-3.07-.02-14.8.1-29.61.17-44.41,0-.21-.36-.43-1.51-1.69-1.47,7.18-3.05,13.53-4.01,19.97-1.26,8.5-1.99,17.08-3.03,25.62-.32,2.59-1.52,4.27-4.67,3.84-1.83-.25-3.74-.17-5.59-.01-2.91.26-3.52-1.01-3.87-3.73-1.82-14.1-3.97-28.15-6.05-42.22-.08-.55-.65-1.02-1.72-2.64-.54,3.13-1.2,5.16-1.19,7.19.09,12.73.39,25.47.4,38.2,0,1.05-1.66,2.13-2.62,3.13-.16.17-.65.01-.99.03q-13.91.6-13.91-13.2c0-20.49.14-40.97-.1-61.46-.06-5,1.39-6.82,6.61-6.36,5.22.46,10.52-.11,15.76.21,1.41.09,3.69,1.55,3.93,2.7,1.29,6.29,2.06,12.68,3.01,19.03.28,1.01.56,2.02.85,3.04Z"/>
    <path class="cls-15" d="m424.38,652.73c-.03.5-.07,1-.08,1.5-.22,11.07.75,9.39-10.45,9.68-3.28.09-3.67-1.33-4.03-4.12-1.87-14.52-4.07-29.01-6.99-43.51-3.95,15.53.43,31.45-1.96,47.56-4.94,0-9.84.23-14.68-.2-.94-.08-2.33-2.77-2.35-4.27-.15-20.82-.1-41.64-.1-62.46,0-3.16.04-6.33-.02-9.49-.06-3.03,1.04-4.63,4.46-4.53,5.93.17,11.89-.16,17.81.2,1.45.09,3.73,1.83,4.02,3.15,1.28,5.78,1.98,11.69,2.89,17.56.51,2.02,1.02,4.04,1.52,6.06.23.97.45,1.94.68,2.9.05.7.1,1.39.16,2.09.28.64.56,1.28.84,1.92.06,1.51.13,3.03.19,4.54l1.85-.12c.14-1.79.28-3.59.43-5.38.64-5.67,1.29-11.34,1.93-17.01.31-1.68.61-3.35.92-5.03.21-2.75.15-5.56.76-8.22.23-1,2.03-1.65,3.12-2.46.74.52,1.47,1.47,2.22,1.49,5.7.13,11.41.13,17.11,0,.75-.02,1.48-.97,2.22-1.49,4.44-.53,3.39,2.82,3.41,5,.1,14.65.05,29.3.05,43.95,0,8.99,0,17.98-.01,26.97,0,1.46-.12,2.91-.2,4.61h-17.39v-53.52c-.77.01-1.53.03-2.3.04v6.6c-.08.64-.17,1.28-.25,1.92-.96,4.02-1.93,8.05-2.89,12.07-.23,3.33-.46,6.66-.7,9.99-.46,2.33-.92,4.67-1.38,7l-.27,2.91c-.18.71-.35,1.42-.53,2.13Z"/>
    <path class="cls-9" d="m660.64,616.63c.52-1.35,1.15-2.2,1.13-3.03-.19-8.62-.45-17.24-.76-25.86-.12-3.27,1.11-4.9,4.71-4.84,15.08.25,12.18-1.44,12.27,11.65.15,21.81.05,43.62.05,65.43,0,1.12,0,2.24,0,3.62h-17.93c-3.45-10.85-6.84-21.48-10.22-32.12-.53-.02-1.05-.04-1.58-.06-.32,1.7-.89,3.4-.91,5.1-.08,7.66-.21,15.33.12,22.97.16,3.72-1.24,4.62-4.67,4.42-4.01-.23-8.03-.05-12.46-.05,0-6,0-11.46,0-16.91,0-19.48.1-38.96-.09-58.44-.04-4.17.83-5.86,5.58-5.69,11.3.41,11.27.17,15.14,10.8,2.52,6.93,5.15,13.83,7.8,20.73.26.69.95,1.22,1.82,2.28Z"/>
    <path class="cls-16" d="m1049.37,616.2c.46-1.81,1.33-3.62,1.32-5.43-.06-7.63-.34-15.26-.63-22.89-.14-3.55,1.2-5.02,5.05-5.02,12.06,0,12.06-.13,12.06,11.67,0,21.66,0,43.32,0,64.97,0,1.29,0,2.57,0,4.32-5.65,0-10.86.11-16.07-.1-.99-.04-2.49-1.21-2.8-2.16-2.23-6.91-4.13-13.93-6.33-20.85-1.02-3.19-2.49-6.24-3.75-9.35-.59.1-1.18.19-1.77.29,0,1.84,0,3.67,0,5.51.02,7.66-.03,15.33.11,22.99.04,2.43-.5,3.81-3.31,3.74-4.39-.11-8.78-.03-13.51-.03-.1-1.61-.25-2.88-.25-4.15-.02-23.66.12-47.31-.13-70.97-.05-4.8,1.69-6.28,6.17-5.83,1.68.17,3.4.14,5.09.01,4.64-.36,6.75,1.45,8.04,6.13,2.53,9.16,6.1,18.04,9.24,27.03.49.04.98.08,1.47.12Z"/>
    <path class="cls-13" d="m713.84,652.3c.44-2.65,1.16-5,1.17-7.35.09-18.81.17-37.63-.05-56.44-.05-4.45,1.51-5.97,5.86-5.64,3.37.26,6.8.26,10.17,0,4.17-.34,5.34,1.68,5.33,5.32-.04,18.65.31,37.3-.09,55.94-.35,15.98-12.02,22.72-27.74,20.81-7.6-.92-14.62-2.78-18.11-10.28-1.28-2.76-2.12-5.98-2.15-9-.19-19.31-.04-38.63-.17-57.94-.02-3.57.84-5.3,4.84-4.85,2.85.32,5.76.07,8.64.06,6.64-.01,6.91.22,6.91,6.65.01,18.81.04,37.63-.04,56.44-.01,3.14.43,5.6,5.44,6.28Z"/>
    <path class="cls-9" d="m241.11,623.64c0,6.5.07,12.99-.01,19.49-.23,17.7-13.67,23.67-28,22.03-16.33-1.86-20.89-12.01-20.59-24.45.3-12.65.04-25.31.12-37.97.05-8.27,3.33-14.95,11.04-18.74,8.47-4.16,17.33-3.96,25.83-.22,8.55,3.76,11.52,11.14,11.6,19.88.06,6.66.01,13.32.01,19.99Zm-20.38-.33c0-5.16.02-10.32,0-15.49-.02-3.16.24-6.38-.3-9.46-.26-1.45-2.1-2.63-3.23-3.94-1.35,1.33-2.82,2.57-3.99,4.04-.42.53-.15,1.61-.15,2.44,0,14.99.03,29.97-.03,44.96-.01,3.15.8,6.22,4.21,6.06,1.26-.06,3.21-3.93,3.33-6.15.42-7.47.16-14.98.16-22.47Z"/>
    <path class="cls-16" d="m1009.49,623.29c0,6.65-.05,13.31,0,19.96.15,17.93-13.92,23.48-27.89,21.93-15.17-1.69-20.83-10.53-20.61-24.4.19-11.98.24-23.96,0-35.93-.38-18.36,13.67-25.17,29.21-23.35,13.75,1.61,20.05,12.37,19.36,22.84-.41,6.3-.08,12.64-.08,18.96Zm-20.38.28c0-7.98.18-15.97-.14-23.94-.07-1.74-1.98-3.41-3.04-5.11-1.46,1.59-3.02,3.1-4.31,4.81-.41.55-.14,1.62-.14,2.45,0,14.47-.05,28.94.05,43.41.01,1.74.51,3.63,1.33,5.17,1.61,3.04,3.75,2.61,5.24-.08.76-1.36.95-3.15.97-4.75.1-7.32.04-14.64.03-21.95Z"/>
    <path class="cls-9" d="m459.37,617.67c0-9.99.11-19.98-.06-29.97-.06-3.61.96-5.22,4.91-4.81,4.8.5,11.22-1.12,14.01,1.36,2.45,2.17,1,8.73,1.02,13.35.07,15.32.03,30.64.03,45.96,0,.83-.3,1.83.06,2.47,1.19,2.12,2.62,4.11,3.96,6.14,1.08-1.98,3.08-3.96,3.11-5.95.24-19.15.27-38.3.04-57.45-.05-4.48,1.03-6.45,5.91-5.9,3.52.39,7.12.22,10.68.03,3.18-.17,4.08,1.17,4.07,4.12-.08,19.48.27,38.97-.14,58.45-.34,15.92-12.53,20.98-26.7,19.72-7.91-.7-15.72-3.03-19.26-11.37-.94-2.22-1.49-4.76-1.53-7.17-.17-9.66-.07-19.32-.07-28.97h-.02Z"/>
    <path class="cls-16" d="m823.34,663.84c0-9.56.07-18.52-.05-27.47-.03-2.28-.21-4.77-1.17-6.76-.6-1.23-2.82-1.7-4.31-2.52-.77,1.4-2.18,2.78-2.2,4.19-.14,9.82.09,19.64-.06,29.46-.02,1.05-1.7,2.93-2.68,2.98-5.7.29-11.43.14-17.57.14,0-1.64,0-2.76,0-3.88,0-21.15,0-42.29,0-63.44,0-13.61,0-13.85,14.11-13.5,7.52.19,15.08.99,22.49,2.23,5.62.95,8.63,5.12,9.27,10.86.3,2.71.73,5.42.83,8.15.26,6.95.95,14.16-8.54,16.98,1.24,1.51,1.75,2.68,2.63,3.12,5.55,2.75,6.18,7.49,6.07,12.88-.15,7.8.2,15.61.09,23.42-.02,1.07-1.41,2.98-2.24,3.03-5.36.28-10.75.14-16.68.14Zm-7.81-58.76s-.07,0-.11,0c0,2.15-.3,4.36.11,6.43.27,1.38,1.38,3.43,2.43,3.64,1.25.24,3.2-.84,4.19-1.93,2.32-2.54,1.98-12.66-.51-15.09-1.03-1-2.9-1.74-4.28-1.59-.73.08-1.51,2.25-1.75,3.57-.3,1.61-.07,3.31-.07,4.98Z"/>
    <path class="cls-16" d="m271.47,663.67h-20.16c-.09-1.43-.24-2.71-.24-3.98-.01-23.48.12-46.97-.12-70.45-.05-4.85.91-6.97,6.35-6.39,9.35.99,18.76,1.35,28.14,2.15,5.12.44,8.37,3.6,9.55,8.25,2.48,9.73,3.08,19.59.13,29.35-2.19,7.25-8.56,8.26-14.9,8.61-8.75.48-8.76.3-8.75,9.05,0,7.63,0,15.26,0,23.4Zm-.02-56.92h-.03c0,2.33-.28,4.71.1,6.98.24,1.45,1.18,3.49,2.31,3.89,1.08.38,3.64-.67,4.1-1.71,1.07-2.43,1.85-5.26,1.7-7.86-.2-3.46-1.22-6.93-2.3-10.26-.25-.75-2.53-1.64-3.31-1.28-1.13.52-2.25,2.04-2.46,3.28-.39,2.27-.11,4.64-.11,6.97Z"/>
    <path class="cls-7" d="m313.76,663.87c0-20.32-.14-39.76.1-59.19.06-4.74-1.65-6.44-6.23-5.95-1.51.16-3.09.22-4.57-.05-.98-.18-2.6-.99-2.63-1.58-.22-4.56-.12-9.13-.12-14.21,14.82,0,28.85-.04,42.87.1.9,0,2.44,1.37,2.55,2.25.5,3.77.79,7.6.62,11.39-.03.76-2.4,1.94-3.75,2.03-8.2.54-8.2.45-8.2,8.54,0,17.33-.11,34.65.09,51.98.04,3.79-1.1,4.97-4.9,4.76-5.22-.3-10.47-.07-15.82-.07Z"/>
    <path class="cls-9" d="m911.84,663.62h-20.64c0-7.34,0-14.46,0-21.57,0-12.82-.12-25.65.08-38.47.06-3.64-.92-5.38-4.83-4.86-1.17.16-2.37.03-3.56.02-.68,0-1.49.2-2.01-.08-5.29-2.86-1.76-7.7-2.37-11.57-.19-1.18,2.28-3.96,3.59-3.99,12.89-.3,25.79-.26,38.68-.02,1.28.02,3.42,1.81,3.61,3.02.55,3.42.46,6.97.22,10.45-.05.78-1.64,1.82-2.69,2.09-1.43.37-3.04.22-4.56.09-4.05-.34-5.66,1.04-5.61,5.37.23,19.63.1,39.26.1,59.52Z"/>
    <path class="cls-16" d="m755.21,663.86c0-20.38-.13-40.01.1-59.64.05-4.46-1.34-5.91-5.78-5.58-2.32.17-6.7-.59-6.76-1.24-.42-4.37-.05-8.84.42-13.23.06-.52,2.28-1.17,3.5-1.18,12.38-.08,24.75.05,37.13-.11,3.46-.04,4.49,1.3,4.26,4.44-.18,2.48-.39,5.07.11,7.47.73,3.47-.9,3.92-3.76,4-8.73.25-8.73.32-8.73,8.99,0,17.14-.11,34.28.1,51.42.05,3.83-1.17,4.95-4.92,4.74-5.03-.28-10.09-.07-15.66-.07Z"/>
    <path class="cls-12" d="m291.85,96.71c-.36,1.63-.72,3.27-1.17,5.3.45.49,1.37,1.49,2.28,2.48-4.42-.56-7.74.88-8.58,5.41-.27,1.47.91,3.2,1.42,4.81-2.48,1.25-4.96,2.5-7.44,3.75,1.53-3.21,2.77-5.59-2.98-6.12-12.38-1.16-24.67-3.13-37-4.78-19.14-2.57-38.27-5.28-57.44-7.68-11.37-1.43-22.82-2.19-34.2-3.59-19.35-2.37-38.66-5.05-58-7.49-9.01-1.14-18.05-2.04-27.07-3.04-2.6-.23-5.19-.46-7.79-.69-.45-.07-.9-.14-1.35-.2-1.35-.13-2.7-.25-4.06-.38-.67-.16-1.35-.32-2.02-.48-1.37-.14-2.75-.28-4.12-.42-4.75-.38-9.5-.77-14.25-1.15,1-.9,2-1.79,3-2.69,9.82.58,19.65,1.15,29.47,1.73.69.17,1.37.34,2.06.5,13.23,1.15,26.45,2.32,39.68,3.44,10.64.9,21.31,1.55,31.93,2.62,21.18,2.12,42.34,4.52,63.52,6.68,21.06,2.15,42.14,4.12,63.2,6.26,6.67.68,13.31,1.65,19.96,2.5,4.07.52,7.64.19,9.08-4.51.26-.86,1.22-1.51,1.85-2.26Z"/>
    <path class="cls-8" d="m851.29,624.22c0-11.83.13-23.66-.08-35.48-.07-4.21,1.13-6.24,5.76-5.87,3.71.3,7.46.12,11.2.04,2.99-.06,4.34,1.27,4.34,4.2-.01,24.49.04,48.97-.12,73.46,0,1.1-1.99,2.2-3.07,3.28-.08.08-.33.02-.5.01-5.57-.14-11.14-.28-16.72-.42-.27-5.24-.68-10.48-.77-15.73-.13-7.83-.03-15.66-.04-23.49Z"/>
    <path class="cls-8" d="m353.12,663.85c0-6.81,0-13.09,0-19.37,0-18.8.09-37.6-.09-56.4-.04-3.96,1.31-5.42,5.24-5.2,3.38.19,6.81.34,10.16-.03,4.34-.47,5.87,1.59,5.87,5.34.03,24.12.06,48.25-.08,72.37,0,1.1-1.61,3.1-2.54,3.14-6.04.29-12.1.15-18.55.15Z"/>
    <path class="cls-16" d="m931.5,663.86c0-17.61,0-34.57,0-51.53,0-8.33.11-16.66-.07-24.99-.08-3.51,1.16-4.76,4.75-4.46,3.54.29,7.14.28,10.68,0,4.37-.33,5.08,1.98,5.06,5.51-.08,16.49-.04,32.99-.05,49.48,0,7.33-.14,14.67.07,21.99.09,3.11-.96,4.14-4.06,4.04-5.23-.17-10.48-.05-16.39-.05Z"/>
    <path class="cls-3" d="m824.81,236.75c.32,1.9.93,3.81.93,5.71.05,52.5.09,105-.06,157.5-.01,4.53,1.15,5.9,5.9,5.88,50.6-.17,101.2-.11,151.8-.11-1.3.68-2.61,1.95-3.91,1.96-50.36.1-100.73.06-151.09.14-3.83,0-4.99-1.44-4.97-5.04.1-27.46-.04-54.93.08-82.39.12-26.44.46-52.87.74-79.31.02-1.44.38-2.89.58-4.33Z"/>
    <path class="cls-3" d="m584.38,395.75c-.14,1.27-.03,2.63-.47,3.79-.68,1.78-1.73,3.43-3.19,6.21h149.34c-1.51.8-3.02,2.3-4.53,2.3-47.12,0-94.25-.19-141.37-.26-6.41,0-6.43.21-3.37-5.59,1.15-2.18,2.39-4.3,3.59-6.45Z"/>
    <path class="cls-6" d="m31.1,79.75c-1,.9-2,1.79-3,2.69-9.37-1.09-18.73-2.17-28.1-3.26.04-.44.08-.88.12-1.32,10.42-1.59,20.69.42,30.98,1.89Z"/>
    <path class="cls-12" d="m368.34,125.71c-1.4.33-2.85,1.08-4.19.91-6.98-.87-13.95-1.85-20.88-3.06-1.61-.28-3.02-1.63-4.52-2.49l29.59,4.64Z"/>
    <path class="cls-3" d="m787.1,197.61c-2.53.26-5.94,1.65-7.4.55-3.63-2.73-7.45-2.14-11.34-2.58-1.33-.15-2.47-1.9-3.69-2.91,7.48,1.65,14.96,3.29,22.44,4.94Z"/>
    <path class="cls-12" d="m454.95,7.89c-.97.75-1.84,1.93-2.94,2.18-5.7,1.32-11.45,2.45-17.21,3.53-.68.13-1.5-.5-2.25-.77,7.47-1.65,14.93-3.29,22.4-4.94Z"/>
    <path class="cls-12" d="m257.11,156.36c-2.23,7.52-4.89,14.82-10.92,20.38,3.64-6.79,7.28-13.59,10.92-20.38Z"/>
    <path class="cls-2" d="m446.85,583.07c-.74.52-1.47,1.47-2.22,1.49-5.7.13-11.41.13-17.11,0-.75-.02-1.48-.97-2.22-1.49,7.18,0,14.37,0,21.55,0Z"/>
    <path class="cls-12" d="m500.8,1.96c-2.43.87-4.83,2.33-7.31,2.49-4.31.28-8.67-.24-13-.43,6.77-.69,13.54-1.38,20.31-2.06Z"/>
    <path class="cls-12" d="m313.28,117.85c-6.12,1.41-12.14,2.12-17.35-2.51,5.78.84,11.57,1.67,17.35,2.51Z"/>
    <path class="cls-3" d="m935.84,234.62c-1.19.06-2.41.32-3.55.13-3.52-.59-7.05-1.18-10.46-2.17-.98-.28-1.55-1.91-2.31-2.92l16.32,4.95Z"/>
    <path class="cls-3" d="m869.54,216.84c-1.08.22-2.2.75-3.22.6-2.9-.42-5.84-.9-8.6-1.81-1.32-.44-2.29-1.92-3.42-2.93,5.08,1.38,10.16,2.76,15.24,4.14Z"/>
    <path class="cls-12" d="m331.64,120.78c-5.5,1.82-11.64.71-14.3-2.59,4.77.86,9.53,1.73,14.3,2.59Z"/>
    <path class="cls-14" d="m1074.91,663.62v-14.44c.3,0,.61,0,.91.01v14.41l-.91.02Z"/>
    <path class="cls-3" d="m728.96,185.8c-5.16,2.66-8.98-1.06-13.23-2.71,4.41.9,8.82,1.8,13.23,2.71Z"/>
    <path class="cls-12" d="m476.38,4.46c-4.13,2.34-8.24,4.76-13.26,2.42,4.42-.81,8.84-1.61,13.26-2.42Z"/>
    <path class="cls-3" d="m759.53,191.77c-3.87,1.07-8.02,3.27-10.19-2.45l10.19,2.45Z"/>
    <path class="cls-3" d="m810.48,202.76c-4.77,2.28-8.33-.94-12.22-2.62,4.07.87,8.15,1.74,12.22,2.62Z"/>
    <path class="cls-12" d="m407.03,19.69c-3.68,2.44-7.26,5.19-12.18,4.13,4.06-1.38,8.12-2.75,12.18-4.13Z"/>
    <path class="cls-10" d="m427.27,630.7c.96-4.02,1.93-8.05,2.89-12.07-.96,4.02-1.93,8.05-2.89,12.07Z"/>
    <path class="cls-3" d="m622.69,322.4c.26,4.87-1.83,8.57-5.82,11.33,1.94-3.78,3.88-7.55,5.82-11.33Z"/>
    <path class="cls-3" d="m802.49,267.2c.87-4.42,1.68-8.88,6.22-11.37-2.07,3.79-4.14,7.58-6.22,11.37Z"/>
    <path class="cls-10" d="m430.41,616.72v-6.6c.77-.01,1.53-.03,2.3-.04v5.61l-2.3,1.03Z"/>
    <path class="cls-12" d="m303.02,81.5c-2.31,3.09-4.61,6.18-6.92,9.27,2.31-3.09,4.61-6.18,6.92-9.27Z"/>
    <path class="cls-3" d="m630.21,308.75c-.07,4.34-1.51,7.92-5.7,10,1.9-3.33,3.8-6.66,5.7-10Z"/>
    <path class="cls-3" d="m835.96,208.73c-3.95,2.36-6.76.65-9.18-2.46,3.06.82,6.12,1.64,9.18,2.46Z"/>
    <path class="cls-12" d="m245.95,177.46c-.04,4.2-1.61,7.6-5.4,9.82,1.8-3.27,3.6-6.55,5.4-9.82Z"/>
    <path class="cls-12" d="m219.47,227.69c-1.7,3.33-3.41,6.65-5.11,9.98,1.7-3.33,3.41-6.65,5.11-9.98Z"/>
    <path class="cls-3" d="m676.8,219.65c.65,2.97-1.86,7.56-4.96,9.08,1.65-3.03,3.31-6.06,4.96-9.08Z"/>
    <path class="cls-3" d="m760.62,346.75c.04-3.93.79-7.47,5.16-9.02-1.72,3.01-3.44,6.01-5.16,9.02Z"/>
    <path class="cls-3" d="m774.83,319.73c-1.12-4.13,1.39-6.18,4.63-7.83l-4.63,7.83Z"/>
    <path class="cls-3" d="m914.39,228.76c-3.5,2.06-5.76.88-7.13-2.63,2.38.88,4.75,1.75,7.13,2.63Z"/>
    <path class="cls-3" d="m766.21,336.65c.45-3.54.14-7.46,4.7-8.91l-4.7,8.91Z"/>
    <path class="cls-12" d="m422.39,15.43l-8.18,2.37,8.18-2.37Z"/>
    <path class="cls-2" d="m418.57,615.79c-.14,1.79-.28,3.59-.43,5.38l-1.85.12c-.06-1.51-.13-3.03-.19-4.54.82-.32,1.64-.65,2.47-.97Z"/>
    <path class="cls-11" d="m551.97,615.78c-.16,1.83-.33,3.66-.49,5.48-.63.04-1.26.08-1.88.11-.14-1.76-.28-3.52-.42-5.28.93-.1,1.86-.21,2.8-.31Z"/>
    <path class="cls-3" d="m1005.2,364.9c-.28-3.17-.52-6.32,3.78-7.17-1.26,2.39-2.52,4.78-3.78,7.17Z"/>
    <path class="cls-3" d="m822.71,205.74c-2.59,1.19-5.36,2.91-6.11-1.83l6.11,1.83Z"/>
    <path class="cls-3" d="m990.82,251.73c-3.4,2.25-5.2.85-6.12-2.57,2.04.86,4.08,1.71,6.12,2.57Z"/>
    <path class="cls-3" d="m694.36,186.74c-1.45,2.3-2.91,4.6-4.36,6.9,1.45-2.3,2.91-4.6,4.36-6.9Z"/>
    <path class="cls-12" d="m330.68,56.85c-2.3,1.66-4.59,3.31-6.89,4.97,2.3-1.66,4.59-3.31,6.89-4.97Z"/>
    <path class="cls-3" d="m743.37,379.78c1.35-2.35,2.71-4.7,4.06-7.05l-4.06,7.05Z"/>
    <path class="cls-12" d="m240.51,187.34c-.52,2.77.74,6.35-3.5,7.43,1.17-2.48,2.33-4.95,3.5-7.43Z"/>
    <path class="cls-6" d="m53.89,85.07c2.6.23,5.19.46,7.79.69l-7.79-.69Z"/>
    <path class="cls-3" d="m687.07,199.54c.22,3.15.18,6.16-3.77,7.19,1.26-2.4,2.52-4.8,3.77-7.19Z"/>
    <path class="cls-3" d="m847.19,211.66c-2.92,1.86-5.22,1.94-6.09-2.06,2.03.69,4.06,1.37,6.09,2.06Z"/>
    <path class="cls-3" d="m892,222.69c-3.62,2.51-5.08-.85-7.15-2.53,2.38.84,4.77,1.69,7.15,2.53Z"/>
    <path class="cls-3" d="m904.25,225.66c-2.84,1.84-5.11,1.93-6.14-1.89,2.05.63,4.09,1.26,6.14,1.89Z"/>
    <path class="cls-12" d="m311.25,72.65c-1.63,1.7-3.26,3.4-4.9,5.1,1.63-1.7,3.26-3.4,4.9-5.1Z"/>
    <path class="cls-12" d="m391.8,24.84c-1.22,2.93-3.27,3.57-6.08,2.12,2.03-.71,4.05-1.41,6.08-2.12Z"/>
    <path class="cls-3" d="m1011.38,352.95c-.53-2.97.08-5.33,3.44-6.24-1.15,2.08-2.29,4.16-3.44,6.24Z"/>
    <path class="cls-3" d="m982.68,248.68c-2.93,1.83-5.24,1.92-6.08-2.09,2.03.7,4.05,1.39,6.08,2.09Z"/>
    <path class="cls-10" d="m425.19,647.7c.46-2.33.92-4.67,1.38-7-.46,2.33-.92,4.67-1.38,7Z"/>
    <path class="cls-3" d="m743.3,188.59c-2.75,1.93-4.98,2.01-6.17-1.66,2.06.55,4.11,1.11,6.17,1.66Z"/>
    <path class="cls-3" d="m713.71,182.71c-2.7,1.66-4.97,1.86-6.12-1.74,2.04.58,4.08,1.16,6.12,1.74Z"/>
    <path class="cls-12" d="m383.69,27.95c-.8,3.79-3.84,2.57-6.28,2.72,2.09-.91,4.18-1.81,6.28-2.72Z"/>
    <path class="cls-12" d="m361.25,38.22c-1.69.92-3.38,1.83-5.07,2.75,1.69-.92,3.38-1.83,5.07-2.75Z"/>
    <path class="cls-3" d="m943.87,236.98c-2.34.98-4.69,1.98-5.02-1.97,1.67.66,3.34,1.31,5.02,1.97Z"/>
    <path class="cls-3" d="m880.8,219.68c-2.59,2-4.22,1.23-5.12-1.69,1.71.56,3.41,1.13,5.12,1.69Z"/>
    <path class="cls-3" d="m972.46,245.77c-2.73,1.74-4.47,1.17-5.06-2.09,1.69.7,3.38,1.39,5.06,2.09Z"/>
    <path class="cls-3" d="m986.09,401.55c1.1-2.28,2.2-4.55,3.3-6.83-1.1,2.28-2.2,4.55-3.3,6.83Z"/>
    <path class="cls-2" d="m414.43,609.85c-.51-2.02-1.02-4.04-1.52-6.06.51,2.02,1.02,4.04,1.52,6.06Z"/>
    <path class="cls-3" d="m703.57,180.59c-2.04.05-4.08.1-6.13.15,1.94-3.91,4.09.12,6.13-.15Z"/>
    <path class="cls-12" d="m373.48,32.57c-1.69.81-3.38,1.62-5.07,2.42,1.69-.81,3.38-1.62,5.07-2.42Z"/>
    <path class="cls-3" d="m821.78,230.77c.44-.66.88-1.32,1.32-1.98.5,1,1,2,1.5,3.01-.94-.34-1.88-.68-2.81-1.03Z"/>
    <path class="cls-3" d="m963.29,242.77c-2.4,1.25-4.69,2.23-5.08-1.84,1.69.61,3.39,1.23,5.08,1.84Z"/>
    <path class="cls-12" d="m274.59,124.73c-.92,1.68-1.84,3.36-2.76,5.04.92-1.68,1.84-3.36,2.76-5.04Z"/>
    <path class="cls-10" d="m1252.69,372.74c-.75-1.66-1.5-3.32-2.26-4.97.75,1.66,1.5,3.32,2.26,4.97Z"/>
    <path class="cls-2" d="m421.42,593.75c-.31,1.68-.61,3.35-.92,5.03.31-1.68.61-3.35.92-5.03Z"/>
    <path class="cls-12" d="m349.01,44.84c-1.66.99-3.32,1.98-4.98,2.96,1.66-.99,3.32-1.98,4.98-2.96Z"/>
    <path class="cls-3" d="m680.9,211.49c.26,2.43.69,4.95-2.99,5.19,1-1.73,2-3.46,2.99-5.19Z"/>
    <path class="cls-3" d="m733.95,397.69c-1.87-2.82-.87-4,2.33-3.9-.78,1.3-1.55,2.6-2.33,3.9Z"/>
    <path class="cls-3" d="m650.48,269.71c-.86,1.68-1.72,3.35-2.58,5.03.86-1.68,1.72-3.35,2.58-5.03Z"/>
    <path class="cls-3" d="m616.75,334.14c.11,2.41.88,5.15-2.92,5.57.97-1.86,1.95-3.72,2.92-5.57Z"/>
    <path class="cls-3" d="m771,327.46c-.2-2.48-1.08-5.28,2.91-5.7-.97,1.9-1.94,3.8-2.91,5.7Z"/>
    <path class="cls-3" d="m798.27,274.73c.9-1.67,1.79-3.34,2.69-5.01-.9,1.67-1.79,3.34-2.69,5.01Z"/>
    <path class="cls-3" d="m809.44,253.72c-2.03-3.11.02-3.71,2.57-4l-2.57,4Z"/>
    <path class="cls-3" d="m1021.34,262.86c-2.54,1.65-3.95,1.11-4.08-1.99,1.36.66,2.72,1.33,4.08,1.99Z"/>
    <path class="cls-12" d="m224.92,217.79c-.69,1.34-1.38,2.67-2.07,4.01.69-1.34,1.38-2.67,2.07-4.01Z"/>
    <path class="cls-3" d="m642.43,284.75c2.07,2.75.23,3.49-2.12,3.97l2.12-3.97Z"/>
    <path class="cls-3" d="m818.48,236.68c-1.86-2.87-.05-3.56,2.39-3.88-.8,1.29-1.59,2.59-2.39,3.88Z"/>
    <path class="cls-3" d="m1028.55,265.61c-2.85,2.23-3.67.51-4.07-2.02,1.36.67,2.71,1.34,4.07,2.02Z"/>
    <path class="cls-3" d="m1036.67,268.69c-2.64,1.93-4.05,1.38-4.09-1.95,1.36.65,2.73,1.3,4.09,1.95Z"/>
    <path class="cls-3" d="m590.42,384.73c1.38,2.74-.05,3.73-2.6,4.01l2.6-4.01Z"/>
    <path class="cls-3" d="m751.46,364.75c-2.14-2.9-.41-3.67,2.24-3.93-.75,1.31-1.5,2.62-2.24,3.93Z"/>
    <path class="cls-3" d="m953.09,239.8c-2.42,1.7-3.87,1.32-4.06-1.81,1.35.6,2.7,1.2,4.06,1.81Z"/>
    <path class="cls-12" d="m231.7,204.48c-.91,1.77-1.82,3.54-2.73,5.32.91-1.77,1.82-3.54,2.73-5.32Z"/>
    <path class="cls-3" d="m795.24,199.63c-2.34,1.94-3.79,1.62-4.12-1.56,1.37.52,2.75,1.04,4.12,1.56Z"/>
    <path class="cls-3" d="m1018.2,339.69c-1.93-2.78-.1-3.51,2.24-3.96-.75,1.32-1.49,2.64-2.24,3.96Z"/>
    <path class="cls-3" d="m662.59,246.66c2.63,3.05.15,2.93-1.96,3.03.65-1.01,1.31-2.02,1.96-3.03Z"/>
    <path class="cls-3" d="m1029.68,317.79c-2.56-2.98-.15-2.93,1.94-3.06-.65,1.02-1.3,2.04-1.94,3.06Z"/>
    <path class="cls-3" d="m757.56,352.75c-2.3-2.85-.14-2.92,1.96-3.02-.65,1.01-1.31,2.01-1.96,3.02Z"/>
    <path class="cls-3" d="m607.85,350.76l-2.07,3.97,2.07-3.97Z"/>
    <path class="cls-6" d="m48.49,84.49c1.35.13,2.7.25,4.06.38-1.35-.13-2.7-.25-4.06-.38Z"/>
    <path class="cls-3" d="m668,236.78c1.79,2.5.24,2.92-1.92,2.96.64-.99,1.28-1.97,1.92-2.96Z"/>
    <path class="cls-6" d="m42.35,83.59c1.37.14,2.75.28,4.12.42-1.37-.14-2.75-.28-4.12-.42Z"/>
    <path class="cls-3" d="m636.28,296.73c2.02,2.58.34,2.95-1.86,3,.62-1,1.24-2,1.86-3Z"/>
    <path class="cls-3" d="m624.26,319.44c.45.58.89,1.17,1.34,1.75-.98.42-1.96.83-2.94,1.25.54-1,1.07-2,1.61-3Z"/>
    <path class="cls-3" d="m633.27,302.75c1.92,2.51.36,2.94-1.85,2.99.62-1,1.23-1.99,1.85-2.99Z"/>
    <path class="cls-3" d="m1035.79,305.79c-2.17-2.78.46-2.57,1.97-3.05-.66,1.02-1.31,2.04-1.97,3.05Z"/>
    <path class="cls-3" d="m780.83,308.69c-1.82-2.42-.38-2.92,1.82-2.97-.61.99-1.21,1.98-1.82,2.97Z"/>
    <path class="cls-3" d="m670.72,231.65c2.26,2.86-.4,2.6-1.99,3.02.66-1.01,1.33-2.01,1.99-3.02Z"/>
    <path class="cls-3" d="m1024.3,327.69c.65-.99,1.29-1.97,1.94-2.96-.65.99-1.29,1.97-1.94,2.96Z"/>
    <path class="cls-3" d="m656.49,258.67c2.21,2.8-.47,2.57-1.98,3.06.66-1.02,1.32-2.04,1.98-3.06Z"/>
    <path class="cls-3" d="m1021.55,332.8c.6-1.03,1.2-2.06,1.8-3.09-.6,1.03-1.2,2.06-1.8,3.09Z"/>
    <path class="cls-3" d="m1015.46,344.8c-2.26-2.86.4-2.6,1.99-3.02-.66,1.01-1.33,2.01-1.99,3.02Z"/>
    <path class="cls-3" d="m994.88,383.73c.66-1,1.33-2,1.99-3-.66,1-1.33,2-1.99,3Z"/>
    <path class="cls-3" d="m1002.21,255.59c-1.43-.44-2.85-.89-4.28-1.33,1.43.44,2.85.89,4.28,1.33Z"/>
    <path class="cls-3" d="m601.59,363.71c-.65,1.01-1.31,2.01-1.96,3.02.65-1.01,1.31-2.01,1.96-3.02Z"/>
    <path class="cls-3" d="m1000.9,372.7c-1.85-2.6-.18-2.94,1.97-2.97-.66.99-1.32,1.98-1.97,2.97Z"/>
    <path class="cls-3" d="m659.48,252.64c2.35,2.78-.35,2.57-1.87,3.06.62-1.02,1.25-2.04,1.87-3.06Z"/>
    <path class="cls-3" d="m739.96,386.66c-1.63-2.39-.25-2.9,1.9-2.94l-1.9,2.94Z"/>
    <path class="cls-3" d="m731.23,402.81c-2.31-2.92.5-2.55,2.01-3.01-.67,1-1.34,2.01-2.01,3.01Z"/>
    <path class="cls-3" d="m812.45,247.71c-1.93-2.65-.17-2.94,1.98-2.98l-1.98,2.98Z"/>
    <path class="cls-3" d="m815.55,241.72c.67-1,1.35-2,2.02-3-.67,1-1.35,2-2.02,3Z"/>
    <path class="cls-3" d="m1013.22,259.76c-2.05,1.71-2.82.83-2.91-1.4.97.47,1.94.93,2.91,1.4Z"/>
  </g>
</svg>