<?xml version="1.0" encoding="UTF-8"?>
<svg id="Layer_2" data-name="Layer 2" xmlns="http://www.w3.org/2000/svg" viewBox="0 0 843.56 467.34">
  <defs>
    <style>
      .cls-1 {
      fill: #fff;
      }

      .cls-1, .cls-2 {
      stroke-width: 0px;
      }

      .cls-2 {
      fill: #000000ff;
      }
    </style>
  </defs>
  <g id="Layer_1-2" data-name="Layer 1">
    <g>
      <g>
        <path class="cls-2" d="m6.68,427.73c-1.87-4.1-3.02-7.98-3.95-11.78-.97-3.82-1.59-7.52-2.03-11.16-.86-7.27-.89-14.24-.29-20.96,1.19-13.44,4.86-25.89,10.34-37.44,11.26-22.95,23.24-45.54,35.97-67.76,25.56-44.36,54.04-87.36,87.17-127.42,16.55-20.02,34.29-39.27,53.56-57.27,19.26-18,40.15-34.67,62.9-49.19,11.39-7.23,23.27-13.86,35.66-19.69,12.37-5.84,25.25-10.88,38.53-14.87,13.27-4.03,27-6.9,40.89-8.58,13.9-1.64,27.97-2.06,41.93-1.14,27.93,1.87,55.19,8.88,80.11,19.76,12.48,5.42,24.44,11.71,35.88,18.64,2.83,1.77,5.72,3.46,8.48,5.31l8.3,5.53,8.09,5.76c2.68,1.93,5.27,3.97,7.9,5.95,2.65,1.96,5.17,4.07,7.71,6.14,2.55,2.07,5.09,4.14,7.54,6.31,2.46,2.15,4.96,4.26,7.39,6.44l7.2,6.6c2.41,2.19,4.69,4.5,7.04,6.74l3.5,3.38c1.16,1.13,2.27,2.3,3.41,3.45l6.79,6.93,6.6,7.07c2.22,2.34,4.36,4.74,6.49,7.15,2.13,2.4,4.27,4.81,6.36,7.24,4.11,4.93,8.33,9.77,12.28,14.79l6.01,7.48,5.84,7.59c3.94,5.02,7.65,10.2,11.45,15.31,3.77,5.13,7.38,10.35,11.04,15.55,3.54,5.27,7.12,10.51,10.6,15.8,6.93,10.61,13.7,21.29,20.24,32.1,3.24,5.42,6.51,10.82,9.62,16.31,3.12,5.48,6.32,10.91,9.33,16.45,6.14,11,12.1,22.08,17.85,33.26,2.84,5.61,5.74,11.18,8.53,16.8l8.32,16.89,8.02,17.02c2.65,5.68,5.22,11.4,7.82,17.1,10.22,22.88,20,45.93,29.07,69.24l-.9.43c-24.62-43.53-49.73-86.61-76.8-128.22-6.8-10.38-13.61-20.73-20.62-30.94-6.98-10.22-14.15-20.3-21.41-30.28-14.49-19.98-29.63-39.41-45.49-58.05-15.85-18.64-32.44-36.54-49.96-53.14l-6.58-6.21-6.71-6.03c-1.12-1-2.23-2.02-3.36-3l-3.42-2.91c-2.3-1.92-4.53-3.92-6.87-5.78-9.22-7.61-18.77-14.69-28.48-21.37-2.45-1.63-4.85-3.34-7.33-4.92l-7.43-4.7-7.54-4.44c-2.5-1.49-5.09-2.8-7.62-4.21-10.22-5.45-20.68-10.23-31.32-14.17-10.65-3.92-21.45-7.09-32.35-9.29-10.9-2.2-21.89-3.45-32.86-3.69-10.97-.22-21.91.62-32.72,2.39-10.81,1.77-21.52,4.38-32,8.01-20.95,7.24-41.13,17.66-60.06,30.61-19.01,12.83-36.83,27.97-53.68,44.38-8.41,8.23-16.56,16.81-24.47,25.67-7.92,8.85-15.61,17.97-23.07,27.31-29.83,37.43-56.3,78.13-80.26,120.37-11.98,21.13-23.34,42.67-34.04,64.52-5.5,10.85-12.48,20.97-21.54,30.27-4.53,4.65-9.6,9.09-15.37,13.29-2.9,2.09-5.94,4.14-9.31,6.08-3.33,1.96-6.84,3.85-10.99,5.55l-.93-.36Z"/>
        <path class="cls-2" d="m640.41,350.17c3.27-5.21,10.16-6.78,15.37-3.5l144.36,90.78,21.21-169.2c.77-6.11,6.35-10.45,12.45-9.68,6.1.77,10.42,6.4,9.68,12.45l-23.39,186.57c-.48,3.78-2.85,7.06-6.29,8.69-3.44,1.63-7.48,1.39-10.71-.64l-159.18-100.09c-1.85-1.17-3.26-2.81-4.13-4.65-1.57-3.32-1.46-7.36.63-10.72Z"/>
      </g>
    </g>
  </g>
</svg>