<?xml version="1.0" encoding="UTF-8"?>
<svg id="Layer_2" data-name="Layer 2" xmlns="http://www.w3.org/2000/svg" viewBox="0 0 799.64 230.45">
  <defs>
    <style>
      .cls-1 {
        fill: #f9ead7;
      }
    </style>
  </defs>
  <g id="Layer_2-2" data-name="Layer 2">
    <path class="cls-1" d="m799.14,115.22c0,7.86-.79,15.53-2.29,22.94-3.45,16.96-10.62,32.55-20.65,45.9-3.27,4.35-6.83,8.45-10.66,12.28-20.76,20.77-49.44,33.6-81.12,33.6H23.48c-11.31,0-20.76-7.82-22.98-18.23v-9.43c2.22-10.41,11.67-18.23,22.98-18.23h101.74c9.82-1.57,17.58-9.28,19.22-19.08.22-1.25.33-2.55.33-3.87s-.11-2.61-.33-3.86c-1.63-9.8-9.4-17.51-19.22-19.08-1.2-.2-2.43-.3-3.7-.3s-2.5.1-3.71.3h-26.23c-12.66,0-22.94-10.27-22.94-22.94s10.28-22.94,22.94-22.94h29.45c12.67,0,22.95-10.28,22.95-22.94s-10.28-22.95-22.95-22.95h-60.31c-12.67,0-22.94-10.27-22.94-22.94S48.05.5,60.73.5h623.69c37.53,0,70.85,18.02,91.78,45.89,10.03,13.34,17.2,28.94,20.65,45.9,1.5,7.41,2.29,15.09,2.29,22.94Z"/>
  </g>
</svg>