<?xml version="1.0" encoding="utf-8"?>
<!-- Generator: Adobe Illustrator 28.0.0, SVG Export Plug-In . SVG Version: 6.00 Build 0)  -->
<svg version="1.1" id="Layer_1" xmlns="http://www.w3.org/2000/svg" xmlns:xlink="http://www.w3.org/1999/xlink" x="0px" y="0px"
	 viewBox="0 0 1052.7 1052.7" style="enable-background:new 0 0 1052.7 1052.7;" xml:space="preserve">
<path d="M1049.4,467.2h-464V122.5c117.2,17,218.3,83.8,281,178.3l-2-3.4L967,238.3C873,94.8,710.7,0,526.4,0S179.7,94.8,85.7,238.3
	l102.5,59.2l-1.3,2.2c62.8-93.9,163.5-160.2,280.3-177.2v807.7c-197.4-28.6-349-198.5-349-403.8c0-64.6,15-125.7,41.7-179.9
	l-0.9,1.5L56.6,288.8C20.4,360.1,0,440.9,0,526.4c0,290.7,235.7,526.4,526.4,526.4c270.7,0,493.7-204.4,523.1-467.2
	c0.1-0.9,0.2-1.7,0.3-2.6V469.8C1049.6,469,1049.5,468.1,1049.4,467.2L1049.4,467.2z M585.5,930.2V585.5h344.7
	C904.4,763.5,763.5,904.4,585.5,930.2z"/>
</svg>
