<?xml version="1.0" encoding="UTF-8"?>
<svg id="Layer_1" data-name="Layer 1" xmlns="http://www.w3.org/2000/svg" viewBox="0 0 1052.72 1052.72">
  <defs>
    <style>
      .cls-1 {
        fill: #fff;
      }

      .cls-1, .cls-2 {
        stroke: #231f20;
        stroke-miterlimit: 10;
      }

      .cls-2 {
        fill: #231f20;
      }
    </style>
  </defs>
  <path class="cls-1" d="m1052.22,526.36c0,19.09-1.02,37.93-3,56.49v-112.98c1.98,18.56,3,37.4,3,56.49Z"/>
  <path class="cls-2" d="m1048.94,467.29h-463.51V122.91c117.11,16.98,218.09,83.76,280.78,178.16l-1.96-3.4,102.31-59.07C872.65,95.22,710.56.5,526.36.5S180.07,95.22,86.16,238.6l102.39,59.11-1.27,2.2c62.75-93.79,163.38-160.09,280.01-177v806.9c-197.18-28.61-348.64-198.34-348.64-403.45,0-64.52,14.99-125.54,41.68-179.77l-.89,1.54-102.43-59.14C20.86,360.3.5,440.95.5,526.36c0,290.42,235.44,525.86,525.86,525.86,270.45,0,493.22-204.17,522.58-466.79.09-.86.19-1.72.28-2.58v-112.98c-.09-.86-.19-1.72-.28-2.58Zm-463.51,462.52v-344.38h344.38c-25.81,177.89-166.49,318.57-344.38,344.38Z"/>
  <path class="cls-1" d="m1049.22,467.29v2.58c-.09-.86-.19-1.72-.28-2.58h.28Z"/>
  <path class="cls-1" d="m1049.22,582.85v2.58h-.28c.09-.86.19-1.72.28-2.58Z"/>
</svg>