<?xml version="1.0" encoding="UTF-8"?>
<svg id="Layer_2" data-name="Layer 2" xmlns="http://www.w3.org/2000/svg" viewBox="0 0 1057 373">
  <defs>
    <style>
      .cls-1 {
        font-family: MyriadPro-Regular, 'Myriad Pro';
        font-size: 208.81px;
        opacity: .97;
      }

      .cls-2 {
        stroke-width: 0px;
      }
    </style>
  </defs>
  <g id="Layer_1-2" data-name="Layer 1">
    <g>
      <g>
        <path class="cls-2" d="m1041.38,15.51v341.23H16.38V15.51h1025m3-3H13.38v347.23h1031V12.51h0Z"/>
        <text class="cls-1" transform="translate(253.69 247.79)"><tspan x="0" y="0">VISON</tspan></text>
        <g>
          <rect class="cls-2" x=".5" y=".5" width="25" height="25"/>
          <path class="cls-2" d="m25,1v24H1V1h24m1-1H0v26h26V0h0Z"/>
        </g>
        <g>
          <rect class="cls-2" x=".5" y="347.5" width="25" height="25"/>
          <path class="cls-2" d="m25,348v24H1v-24h24m1-1H0v26h26v-26h0Z"/>
        </g>
        <g>
          <rect class="cls-2" x="1031.5" y="347.5" width="25" height="25"/>
          <path class="cls-2" d="m1056,348v24h-24v-24h24m1-1h-26v26h26v-26h0Z"/>
        </g>
        <g>
          <rect class="cls-2" x="1031.5" y=".5" width="25" height="25"/>
          <path class="cls-2" d="m1056,1v24h-24V1h24m1-1h-26v26h26V0h0Z"/>
        </g>
        <g>
          <rect class="cls-2" x="516.25" y="1.5" width="25" height="25"/>
          <path class="cls-2" d="m540.75,2v24h-24V2h24m1-1h-26v26h26V1h0Z"/>
        </g>
        <g>
          <rect class="cls-2" x="516.38" y="347.5" width="25" height="25"/>
          <path class="cls-2" d="m540.88,348v24h-24v-24h24m1-1h-26v26h26v-26h0Z"/>
        </g>
        <g>
          <rect class="cls-2" x="1031.5" y="173.62" width="25" height="25"/>
          <path class="cls-2" d="m1056,174.12v24h-24v-24h24m1-1h-26v26h26v-26h0Z"/>
        </g>
        <g>
          <rect class="cls-2" x=".5" y="173.75" width="25" height="25"/>
          <path class="cls-2" d="m25,174.25v24H1v-24h24m1-1H0v26h26v-26h0Z"/>
        </g>
      </g>
      <path class="cls-2" d="m961.82,256.1c-99.32,5.73-198.44,14.71-297.16,26.99-9.96,1.24-19.9,2.52-29.85,3.83,64.86-18.42,132.47-26.32,198.96-37.14,23.88-3.89,47.68-8.19,71.29-13.48,5.4-1.21,4.34-10.39-1.33-9.82-47.12,4.68-94.25,9.36-141.37,14.05-45.9,4.57-91.81,9.25-137.45,16.06-25.94,3.87-51.76,8.47-77.38,14.1-6.28,1.38-3.62,11.02,2.66,9.64,71.81-15.77,145.06-23.47,218.22-30.55-39.59,6.1-79.09,12.65-117.96,22.5-23.32,5.91-46.31,13.07-68.7,21.89-6.06,2.39-3.7,10.55,2.66,9.64,97.71-13.95,195.88-24.68,294.3-32.17,27.68-2.11,55.38-3.95,83.1-5.55,6.4-.37,6.44-10.37,0-10Z"/>
    </g>
  </g>
</svg>